<?xml version="1.0" encoding="UTF-8"?>
<svg version="1.1" viewBox="0 0 1440 1440" width="1280" height="1280" xmlns="http://www.w3.org/2000/svg">
    <path transform="translate(983,207)"
        d="m0 0h6l6 12 16 46 13 37 40 114 19 54 14 40 23 65 21 60 13 37 7 19v9l-2 2h-6l-86-33-44-17-20-8-2 10-12 40-10 30-15 39-12 28-14 29-12 24-14 24-12 20-20 30-14 19-22 28-13 15-9 10-7 8-33 33-8 7-12 11-11 9-16 13-16 12-17 12-29 19-15 9-21 12-24 13-29 14-38 16-39 14-36 11-35 9-37 8-35 6-43 5-31 2h-8l-3-3-1-6 7-6 14-9 28-19 23-16 14-10 19-14 18-14 14-11 16-13 10-8 13-11 10-9 11-9 7-7 8-7 12-11 11-11 8-7 18-18 7-8 11-11 7-8 12-13 9-11 8-9 9-11 13-16 16-21 28-40 13-21 10-16 9-15 7-14 12-22 13-27 15-36 13-36 10-34 7-30 5-27 3-25 1-16-16-8-40-19-33-15-29-14-20-9-17-8-5-5 2-5 9-7 16-11 18-13 20-14 17-12 20-14 34-24 14-10 17-12 40-28 34-24 18-13 16-11 18-13 16-11 18-13 19-13 18-13z"
        fill="#1eaf31" />
</svg>